<svg xmlns="http://www.w3.org/2000/svg" viewBox="0 0 960 540" role="img" aria-labelledby="title desc">
  <title id="title">Rainy hotel lobby umbrella rack</title>
  <desc id="desc">A rainy hotel lobby shows an umbrella rack, wet entrance mat, umbrella sleeves, return basket, taxi-wait note, mop bucket, caution cone, and a traveler with luggage.</desc>
  <defs>
    <linearGradient id="rainGlass" x1="0" y1="0" x2="1" y2="1">
      <stop offset="0" stop-color="#20354a"/>
      <stop offset="0.55" stop-color="#3f6072"/>
      <stop offset="1" stop-color="#8cb3bd"/>
    </linearGradient>
    <linearGradient id="lobbyFloor" x1="0" y1="0" x2="0" y2="1">
      <stop offset="0" stop-color="#e8edf1"/>
      <stop offset="1" stop-color="#a9b7bd"/>
    </linearGradient>
    <linearGradient id="brass" x1="0" y1="0" x2="1" y2="1">
      <stop offset="0" stop-color="#f4c76b"/>
      <stop offset="1" stop-color="#a96c37"/>
    </linearGradient>
    <linearGradient id="mat" x1="0" y1="0" x2="1" y2="1">
      <stop offset="0" stop-color="#263845"/>
      <stop offset="1" stop-color="#17242d"/>
    </linearGradient>
    <filter id="shadow" x="-20%" y="-20%" width="140%" height="140%">
      <feDropShadow dx="0" dy="16" stdDeviation="14" flood-color="#142635" flood-opacity=".22"/>
    </filter>
  </defs>

  <rect width="960" height="540" rx="28" fill="#dfe8ec"/>
  <path d="M76 82h808v286H76z" fill="url(#rainGlass)"/>
  <path d="M110 108v236M232 94v260M356 96v254M480 88v266M604 96v254M728 94v260M850 108v236" stroke="#b7d6dd" stroke-width="6" opacity=".32"/>
  <path d="M132 128l-22 72M210 110l-34 116M306 134l-28 96M428 112l-38 126M552 126l-26 90M660 108l-34 118M778 128l-28 96M844 116l-22 74" stroke="#e7fbff" stroke-width="5" stroke-linecap="round" opacity=".5"/>
  <path d="M94 360c170-24 312-22 426 8 104 28 214 24 338-12" fill="none" stroke="#f6fbff" stroke-width="8" stroke-linecap="round" opacity=".28"/>
  <rect x="76" y="348" width="808" height="120" rx="26" fill="url(#lobbyFloor)"/>
  <path d="M110 414h740M136 446h676" stroke="#ffffff" stroke-width="7" stroke-linecap="round" opacity=".45"/>

  <g transform="translate(118 330)" filter="url(#shadow)">
    <path d="M0 36c74-28 194-28 270 0v82H0z" fill="url(#mat)"/>
    <path d="M34 58h204M48 86h174" stroke="#6d8793" stroke-width="8" stroke-linecap="round" opacity=".62"/>
    <path d="M64 24c24 12 58 14 92 3M168 26c24 10 48 10 72 0" fill="none" stroke="#9ed0dc" stroke-width="6" stroke-linecap="round" opacity=".75"/>
    <text x="28" y="150" fill="#2a3d48" font-family="Inter, Arial, sans-serif" font-size="18" font-weight="700">wet entrance mat</text>
  </g>

  <g transform="translate(430 180)" filter="url(#shadow)">
    <rect x="40" y="108" width="224" height="112" rx="24" fill="#253845"/>
    <path d="M62 108h180" stroke="url(#brass)" stroke-width="14" stroke-linecap="round"/>
    <g stroke-linecap="round" stroke-linejoin="round">
      <path d="M80 98c12-64 76-72 112-24" fill="none" stroke="#e85d56" stroke-width="16"/>
      <path d="M132 103V42c0-22 26-28 34-8" fill="none" stroke="#f7d079" stroke-width="10"/>
      <path d="M150 98c16-70 82-70 118-14" fill="none" stroke="#4ea3a8" stroke-width="16"/>
      <path d="M204 104V34c0-20 28-28 38-8" fill="none" stroke="#f3f7f2" stroke-width="10"/>
      <path d="M42 102c18-56 74-58 106-16" fill="none" stroke="#7a6bb0" stroke-width="16"/>
      <path d="M92 106V48c0-20 25-26 34-8" fill="none" stroke="#f7d079" stroke-width="10"/>
    </g>
    <rect x="16" y="176" width="66" height="74" rx="18" fill="#f7faf9"/>
    <path d="M32 202h30M32 224h22" stroke="#506875" stroke-width="7" stroke-linecap="round"/>
    <text x="-2" y="278" fill="#364d59" font-family="Inter, Arial, sans-serif" font-size="18" font-weight="700">dry sleeves</text>
  </g>

  <g transform="translate(722 274)" filter="url(#shadow)">
    <rect width="132" height="92" rx="22" fill="#f8efe1"/>
    <path d="M24 30h58M24 56h82" stroke="#5d6d72" stroke-width="8" stroke-linecap="round"/>
    <path d="M96 24l20 22-30 4" fill="none" stroke="#e85d56" stroke-width="8" stroke-linecap="round" stroke-linejoin="round"/>
    <text x="4" y="128" fill="#eef4f4" font-family="Inter, Arial, sans-serif" font-size="18" font-weight="700">return basket</text>
  </g>

  <g transform="translate(706 118)" filter="url(#shadow)">
    <rect width="146" height="82" rx="20" fill="#fff6dc"/>
    <path d="M24 28h64M24 52h96" stroke="#6f614b" stroke-width="8" stroke-linecap="round"/>
    <circle cx="112" cy="28" r="11" fill="#4ea3a8"/>
    <text x="12" y="118" fill="#eaf6f8" font-family="Inter, Arial, sans-serif" font-size="18" font-weight="700">taxi +8 min</text>
  </g>

  <g transform="translate(92 154)" filter="url(#shadow)">
    <circle cx="66" cy="46" r="32" fill="#b98062"/>
    <path d="M34 98c8-34 60-44 86-12 19 24 20 86 12 138H24c-6-50-4-94 10-126z" fill="#2f6f84"/>
    <path d="M68 78v76" stroke="#fff0d0" stroke-width="11" stroke-linecap="round"/>
    <rect x="104" y="116" width="86" height="116" rx="18" fill="#23313a"/>
    <circle cx="124" cy="248" r="13" fill="#17242d"/>
    <circle cx="170" cy="248" r="13" fill="#17242d"/>
    <path d="M130 150h38M130 178h30" stroke="#dbe8ed" stroke-width="8" stroke-linecap="round"/>
  </g>

  <g transform="translate(294 152)" filter="url(#shadow)">
    <rect width="126" height="176" rx="22" fill="#e6f1f4"/>
    <path d="M28 44h58M28 76h76M28 108h44" stroke="#506875" stroke-width="8" stroke-linecap="round"/>
    <circle cx="94" cy="44" r="11" fill="#e85d56"/>
    <path d="M30 142h70" stroke="#4ea3a8" stroke-width="9" stroke-linecap="round"/>
    <text x="-8" y="214" fill="#eaf6f8" font-family="Inter, Arial, sans-serif" font-size="18" font-weight="700">route note</text>
  </g>

  <g transform="translate(356 372)" filter="url(#shadow)">
    <rect x="0" y="26" width="96" height="58" rx="18" fill="#2f4957"/>
    <path d="M18 26c8-26 52-26 60 0" fill="none" stroke="#93cbd3" stroke-width="12" stroke-linecap="round"/>
    <path d="M22 54h42" stroke="#e6f1f4" stroke-width="7" stroke-linecap="round"/>
    <text x="-4" y="120" fill="#344b56" font-family="Inter, Arial, sans-serif" font-size="18" font-weight="700">wet bags</text>
  </g>

  <g transform="translate(604 382)" filter="url(#shadow)">
    <path d="M44 0l38 96H6z" fill="#f4c76b"/>
    <path d="M28 58h32" stroke="#7a4d2a" stroke-width="8" stroke-linecap="round"/>
    <rect x="112" y="20" width="64" height="70" rx="18" fill="#4d6974"/>
    <path d="M144 20V0M120 90h48" stroke="#c7e2e6" stroke-width="10" stroke-linecap="round"/>
  </g>

  <path d="M402 300c46 32 80 46 122 50M650 312c34 12 66 10 94-6M250 334c46-28 82-40 118-40" fill="none" stroke="#f4c76b" stroke-width="8" stroke-linecap="round" stroke-dasharray="13 17" opacity=".86"/>
  <path d="M742 306l32 14-28 24" fill="none" stroke="#f4c76b" stroke-width="8" stroke-linecap="round" stroke-linejoin="round"/>
  <text x="82" y="64" fill="#eef8f9" font-family="Inter, Arial, sans-serif" font-size="28" font-weight="700">rain plan at the door</text>
  <text x="82" y="98" fill="#cce2e8" font-family="Inter, Arial, sans-serif" font-size="16">umbrella, sleeve, mat, taxi, return, mop</text>
</svg>
