<svg xmlns="http://www.w3.org/2000/svg" width="960" height="540" viewBox="0 0 960 540" role="img" aria-labelledby="title desc">
  <title id="title">Rate-sheet precedence keeps distribution promises consistent</title>
  <desc id="desc">An editorial map of rate-sheet rows, precedence cascade, channel gates, time boundary, and settlement evidence tray, showing how one inheritance order changes an offer across markets.</desc>

  <defs>
    <linearGradient id="bg" x1="0" y1="0" x2="1" y2="1">
      <stop offset="0%" stop-color="#f8fbff"/>
      <stop offset="52%" stop-color="#dce7f8"/>
      <stop offset="100%" stop-color="#1d3752"/>
    </linearGradient>
    <linearGradient id="paper" x1="0" y1="0" x2="1" y2="1">
      <stop offset="0%" stop-color="#ffffff"/>
      <stop offset="100%" stop-color="#e8eef8"/>
    </linearGradient>
    <linearGradient id="deep" x1="0" y1="0" x2="1" y2="1">
      <stop offset="0%" stop-color="#12345a"/>
      <stop offset="100%" stop-color="#28456a"/>
    </linearGradient>
    <linearGradient id="aqua" x1="0" y1="0" x2="1" y2="1">
      <stop offset="0%" stop-color="#8fecd7"/>
      <stop offset="100%" stop-color="#3fb59a"/>
    </linearGradient>
    <linearGradient id="amber" x1="0" y1="0" x2="1" y2="1">
      <stop offset="0%" stop-color="#ffd9a5"/>
      <stop offset="100%" stop-color="#d9903b"/>
    </linearGradient>
    <linearGradient id="violet" x1="0" y1="0" x2="1" y2="1">
      <stop offset="0%" stop-color="#ccb2ff"/>
      <stop offset="100%" stop-color="#735ec7"/>
    </linearGradient>
    <linearGradient id="coral" x1="0" y1="0" x2="1" y2="1">
      <stop offset="0%" stop-color="#ffb7a5"/>
      <stop offset="100%" stop-color="#d95f67"/>
    </linearGradient>
    <filter id="shadow" x="-20%" y="-20%" width="140%" height="160%">
      <feDropShadow dx="0" dy="16" stdDeviation="12" flood-color="#0d253f" flood-opacity="0.28"/>
    </filter>
  </defs>

  <rect width="960" height="540" fill="url(#bg)"/>
  <ellipse cx="220" cy="90" rx="300" ry="58" fill="#ffffff" opacity="0.34"/>
  <g opacity="0.17" stroke="#ffffff">
    <path d="M0 120h960M0 198h960M0 276h960M0 354h960M0 432h960" stroke-width="2"/>
    <path d="M76 60v420M188 60v420M300 60v420M412 60v420M524 60v420M636 60v420M748 60v420M860 60v420" stroke-width="1"/>
  </g>

  <g transform="translate(68 78)" filter="url(#shadow)">
    <rect width="248" height="404" rx="22" fill="url(#paper)"/>
    <rect x="16" y="16" width="216" height="52" rx="16" fill="url(#deep)"/>
    <text x="31" y="50" fill="#ffdca2" font-family="Inter, Arial, sans-serif" font-size="16" font-weight="900">SUPPLIER RATE SHEET</text>

    <rect x="20" y="82" width="208" height="34" rx="12" fill="url(#aqua)"/>
    <text x="34" y="103" fill="#0f3d46" font-family="Inter, Arial, sans-serif" font-size="12" font-weight="800">base_rate_plan</text>
    <rect x="20" y="124" width="208" height="34" rx="12" fill="#f5f8ff"/>
    <text x="34" y="145" fill="#335071" font-family="Inter, Arial, sans-serif" font-size="12" font-weight="700">RP-STD-01</text>

    <rect x="20" y="172" width="208" height="34" rx="12" fill="url(#amber)"/>
    <text x="34" y="193" fill="#582d00" font-family="Inter, Arial, sans-serif" font-size="12" font-weight="800">fallback_plan_id</text>
    <rect x="20" y="214" width="208" height="34" rx="12" fill="#f5f8ff"/>
    <text x="34" y="235" fill="#335071" font-family="Inter, Arial, sans-serif" font-size="12" font-weight="700">RP-MIGRATE-v2</text>

    <rect x="20" y="262" width="208" height="34" rx="12" fill="url(#violet)"/>
    <text x="34" y="283" fill="#fff9ff" font-family="Inter, Arial, sans-serif" font-size="12" font-weight="800">channel_scope</text>
    <rect x="20" y="304" width="208" height="52" rx="12" fill="#f5f8ff"/>
    <rect x="32" y="316" width="64" height="24" rx="11" fill="url(#aqua)"/>
    <text x="43" y="331" fill="#11464d" font-family="Inter, Arial, sans-serif" font-size="10" font-weight="800">UAE</text>
    <rect x="108" y="316" width="48" height="24" rx="11" fill="url(#coral)"/>
    <text x="117" y="331" fill="#4c1f2a" font-family="Inter, Arial, sans-serif" font-size="10" font-weight="800">B2B</text>
    <rect x="164" y="316" width="52" height="24" rx="11" fill="#f2f4ff"/>
    <text x="177" y="331" fill="#2e4d6f" font-family="Inter, Arial, sans-serif" font-size="10" font-weight="800">OTA</text>

    <rect x="20" y="362" width="208" height="28" rx="12" fill="url(#coral)"/>
    <text x="34" y="380" fill="#fff2f4" font-family="Inter, Arial, sans-serif" font-size="11" font-weight="800">version_stamp: RS-2026-09-09</text>
  </g>

  <g transform="translate(356 72)" filter="url(#shadow)">
    <rect width="236" height="390" rx="24" fill="url(#paper)"/>
    <rect x="16" y="14" width="204" height="46" rx="15" fill="url(#deep)"/>
    <text x="28" y="43" fill="#ffdea0" font-family="Inter, Arial, sans-serif" font-size="14" font-weight="900">PRECEDENCE CASCADE</text>

    <rect x="28" y="78" width="180" height="56" rx="14" fill="url(#amber)"/>
    <text x="43" y="96" fill="#4c2a00" font-family="Inter, Arial, sans-serif" font-size="11" font-weight="800">1. direct hit</text>
    <text x="43" y="116" fill="#4c2a00" font-family="Inter, Arial, sans-serif" font-size="11" font-weight="700">rate_plan_id</text>

    <path d="M118 134V170" stroke="#5f7a9c" stroke-width="5" stroke-linecap="round"/>
    <circle cx="118" cy="133" r="7" fill="url(#aqua)"/>

    <rect x="28" y="172" width="180" height="56" rx="14" fill="url(#violet)"/>
    <text x="43" y="190" fill="#f8f1ff" font-family="Inter, Arial, sans-serif" font-size="11" font-weight="800">2. override</text>
    <text x="43" y="210" fill="#f8f1ff" font-family="Inter, Arial, sans-serif" font-size="11" font-weight="700">channel_scope</text>

    <path d="M118 230V266" stroke="#6f81a7" stroke-width="5" stroke-linecap="round"/>
    <circle cx="118" cy="229" r="7" fill="url(#coral)"/>

    <rect x="28" y="268" width="180" height="56" rx="14" fill="url(#aqua)"/>
    <text x="43" y="286" fill="#11474f" font-family="Inter, Arial, sans-serif" font-size="11" font-weight="800">3. fallback</text>
    <text x="43" y="306" fill="#11474f" font-family="Inter, Arial, sans-serif" font-size="11" font-weight="700">fallback_plan_id</text>

    <rect x="28" y="330" width="180" height="34" rx="12" fill="url(#deep)"/>
    <text x="44" y="350" fill="#ffdca2" font-family="Inter, Arial, sans-serif" font-size="11" font-weight="800">effective_window: 2026-09-09</text>
    <text x="44" y="366" fill="#ffdca2" font-family="Inter, Arial, sans-serif" font-size="10" font-weight="700">to 2026-09-10 02:00</text>
  </g>

  <g transform="translate(644 86)" filter="url(#shadow)">
    <rect width="244" height="160" rx="22" fill="#f2f7ff"/>
    <rect x="14" y="14" width="216" height="42" rx="15" fill="url(#deep)"/>
    <text x="29" y="40" fill="#ffd67a" font-family="Inter, Arial, sans-serif" font-size="13" font-weight="900">CHANNEL GATES</text>

    <rect x="20" y="66" width="208" height="24" rx="11" fill="url(#aqua)"/>
    <text x="34" y="82" fill="#0f3f45" font-family="Inter, Arial, sans-serif" font-size="10.5" font-weight="800">UAE B2B · OPEN</text>

    <rect x="20" y="98" width="208" height="24" rx="11" fill="#f3e6ff"/>
    <text x="34" y="114" fill="#4f4b6e" font-family="Inter, Arial, sans-serif" font-size="10.5" font-weight="800">KSA OTA · CLOSED</text>

    <rect x="20" y="130" width="208" height="24" rx="11" fill="url(#amber)"/>
    <text x="34" y="146" fill="#4c2400" font-family="Inter, Arial, sans-serif" font-size="10.5" font-weight="800">Fallback: HOLD until aligned</text>
  </g>

  <g transform="translate(644 276)" filter="url(#shadow)">
    <rect width="244" height="158" rx="22" fill="#f4fbf8"/>
    <rect x="14" y="14" width="216" height="42" rx="15" fill="url(#deep)"/>
    <text x="28" y="40" fill="#ffd9a0" font-family="Inter, Arial, sans-serif" font-size="13" font-weight="900">SETTLEMENT EVIDENCE</text>

    <rect x="20" y="66" width="208" height="24" rx="11" fill="#f0f6ff"/>
    <text x="33" y="82" fill="#2f4a65" font-family="Inter, Arial, sans-serif" font-size="10.5" font-weight="800">chargeable_rate = 0? check</text>

    <rect x="20" y="98" width="208" height="24" rx="11" fill="url(#violet)"/>
    <text x="34" y="114" fill="#fbf8ff" font-family="Inter, Arial, sans-serif" font-size="10.5" font-weight="800">ledger_row: rev-220909</text>

    <rect x="20" y="130" width="208" height="24" rx="11" fill="url(#coral)"/>
    <text x="34" y="146" fill="#fff1f2" font-family="Inter, Arial, sans-serif" font-size="10.5" font-weight="800">replay by version stamp</text>
  </g>

  <g fill="none" stroke-width="4" stroke-linecap="round">
    <path d="M316 220C316 220 356 220 356 220" stroke="#36557d" stroke-opacity="0.8"/>
    <path d="M596 220C596 220 636 220 636 220" stroke="#36557d" stroke-opacity="0.8"/>
    <path d="M316 220C386 220 386 286 468 286" stroke="#36557d" stroke-opacity="0.7"/>
    <path d="M592 286C592 286 624 286 644 286" stroke="#36557d" stroke-opacity="0.7"/>
  </g>

  <g fill="#1c4769">
    <circle cx="316" cy="220" r="5"/>
    <circle cx="596" cy="220" r="5"/>
    <circle cx="468" cy="286" r="5"/>
    <circle cx="644" cy="286" r="5"/>
  </g>

  <g transform="translate(44 430)">
    <rect x="0" y="0" width="160" height="72" rx="16" fill="url(#amber)"/>
    <text x="14" y="22" fill="#4f2e05" font-family="Inter, Arial, sans-serif" font-size="12" font-weight="800">INHERITANCE RULE</text>
    <text x="14" y="44" fill="#4f2e05" font-family="Inter, Arial, sans-serif" font-size="11" font-weight="700">priority list</text>
    <text x="14" y="60" fill="#4f2e05" font-family="Inter, Arial, sans-serif" font-size="11" font-weight="700">with explicit owner</text>
  </g>

  <g transform="translate(232 430)">
    <rect x="0" y="0" width="160" height="72" rx="16" fill="url(#aqua)"/>
    <text x="14" y="22" fill="#0c4447" font-family="Inter, Arial, sans-serif" font-size="12" font-weight="800">TIME CHECK</text>
    <text x="14" y="44" fill="#0c4447" font-family="Inter, Arial, sans-serif" font-size="11" font-weight="700">effective_window</text>
    <text x="14" y="60" fill="#0c4447" font-family="Inter, Arial, sans-serif" font-size="11" font-weight="700">split risk clocked</text>
  </g>

  <g transform="translate(420 430)">
    <rect x="0" y="0" width="160" height="72" rx="16" fill="url(#violet)"/>
    <text x="14" y="22" fill="#f8f3ff" font-family="Inter, Arial, sans-serif" font-size="12" font-weight="800">RECONCILIATION</text>
    <text x="14" y="44" fill="#f8f3ff" font-family="Inter, Arial, sans-serif" font-size="11" font-weight="700">chargeable vs displayed</text>
    <text x="14" y="60" fill="#f8f3ff" font-family="Inter, Arial, sans-serif" font-size="11" font-weight="700">match by version</text>
  </g>

  <g transform="translate(608 430)">
    <rect x="0" y="0" width="160" height="72" rx="16" fill="url(#coral)"/>
    <text x="14" y="22" fill="#fff6f8" font-family="Inter, Arial, sans-serif" font-size="12" font-weight="800">EVIDENCE PACK</text>
    <text x="14" y="44" fill="#fff6f8" font-family="Inter, Arial, sans-serif" font-size="11" font-weight="700">rate sheet manifest</text>
    <text x="14" y="60" fill="#fff6f8" font-family="Inter, Arial, sans-serif" font-size="11" font-weight="700">replay link stable</text>
  </g>

</svg>
