<svg xmlns="http://www.w3.org/2000/svg" width="960" height="540" viewBox="0 0 960 540" role="img" aria-labelledby="title desc">
  <title id="title">Beach hotel drying line and floor drain for a long stay</title>
  <desc id="desc">A cutaway beach hotel room shows wet swimsuits on a balcony drying line, floor-drain water ring, sandy sandals, towel rack, dehumidifier, extra towel card, diving mask, room-type note, and a dry path toward the bed.</desc>
  <defs>
    <linearGradient id="seaRoom" x1="0" x2="1" y1="0" y2="1">
      <stop offset="0" stop-color="#d8f1ef"/>
      <stop offset="0.42" stop-color="#f4e8c9"/>
      <stop offset="1" stop-color="#365b6c"/>
    </linearGradient>
    <linearGradient id="balconyLight" x1="0" x2="1" y1="0" y2="1">
      <stop offset="0" stop-color="#fff4c4"/>
      <stop offset="0.55" stop-color="#65b9bc"/>
      <stop offset="1" stop-color="#246f83"/>
    </linearGradient>
    <linearGradient id="tile" x1="0" x2="1" y1="0" y2="1">
      <stop offset="0" stop-color="#eef8f0"/>
      <stop offset="1" stop-color="#9fc7bf"/>
    </linearGradient>
    <linearGradient id="bedcover" x1="0" x2="1" y1="0" y2="1">
      <stop offset="0" stop-color="#f46f61"/>
      <stop offset="1" stop-color="#7e4056"/>
    </linearGradient>
    <linearGradient id="paper" x1="0" x2="1" y1="0" y2="1">
      <stop offset="0" stop-color="#fff9e8"/>
      <stop offset="1" stop-color="#dfcfaa"/>
    </linearGradient>
    <filter id="shadow" x="-20%" y="-20%" width="140%" height="150%">
      <feDropShadow dx="0" dy="16" stdDeviation="14" flood-color="#26343c" flood-opacity=".23"/>
    </filter>
  </defs>

  <rect width="960" height="540" rx="28" fill="url(#seaRoom)"/>
  <path d="M76 78h808M112 120h698M86 454h792" stroke="#fff8e7" stroke-width="8" stroke-linecap="round" opacity=".46"/>
  <path d="M94 390c122-30 244-28 366 6 128 36 260 24 396-34" fill="none" stroke="#ffffff" stroke-width="9" stroke-linecap="round" opacity=".26"/>

  <g transform="translate(574 74)" filter="url(#shadow)">
    <rect width="292" height="334" rx="32" fill="url(#balconyLight)"/>
    <path d="M36 86c56-34 114-32 174 4 36 22 72 22 108 0" fill="none" stroke="#e8fbf3" stroke-width="9" stroke-linecap="round" opacity=".8"/>
    <path d="M38 224h218M38 262h218" stroke="#fff4c4" stroke-width="10" stroke-linecap="round" opacity=".84"/>
    <path d="M42 124h206" stroke="#325766" stroke-width="10" stroke-linecap="round"/>
    <path d="M58 124c10 42 48 42 58 0M144 124c8 46 54 46 64 0" fill="none" stroke="#f46f61" stroke-width="9" stroke-linecap="round"/>
    <path d="M78 130v58c24 18 46 14 64-8v-50" fill="#ffb453" opacity=".96"/>
    <path d="M164 130v70c22 14 46 10 66-12v-58" fill="#4e8fb0" opacity=".96"/>
    <path d="M88 192c22 12 44 10 64-6M174 204c22 10 42 6 58-8" stroke="#fff8e7" stroke-width="6" stroke-linecap="round" opacity=".86"/>
    <circle cx="236" cy="54" r="34" fill="#ffd36c" opacity=".76"/>
  </g>

  <g transform="translate(80 160)" filter="url(#shadow)">
    <path d="M0 150 386 58l210 78-386 116z" fill="#d5aa75"/>
    <path d="M0 150v138l210 84V252z" fill="#b7855f"/>
    <path d="M210 252 596 136v132L210 372z" fill="#d09466"/>
    <path d="M58 202h118M58 238h86M284 236h142M284 272h96" stroke="#ffeac6" stroke-width="10" stroke-linecap="round" opacity=".68"/>
  </g>

  <g transform="translate(110 120)" filter="url(#shadow)">
    <rect x="0" y="66" width="310" height="168" rx="30" fill="#fff4df"/>
    <rect x="34" y="32" width="244" height="78" rx="24" fill="#fdf9ef"/>
    <rect x="46" y="108" width="218" height="86" rx="20" fill="url(#bedcover)"/>
    <path d="M0 232h310" stroke="#3b5663" stroke-width="15" stroke-linecap="round"/>
    <path d="M62 138h92M62 164h128" stroke="#ffecc9" stroke-width="10" stroke-linecap="round" opacity=".78"/>
    <path d="M346 236c46-22 96-22 152-2" fill="none" stroke="#fff8e7" stroke-width="12" stroke-linecap="round" opacity=".78"/>
    <path d="M346 236c46-22 96-22 152-2" fill="none" stroke="#3e6b75" stroke-width="5" stroke-linecap="round" stroke-dasharray="14 13" opacity=".72"/>
  </g>

  <g transform="translate(404 212)" filter="url(#shadow)">
    <rect width="152" height="152" rx="24" fill="url(#tile)"/>
    <path d="M22 42h108M22 78h108M22 114h108M42 22v108M78 22v108M114 22v108" stroke="#dff3ea" stroke-width="5" stroke-linecap="round" opacity=".8"/>
    <circle cx="76" cy="78" r="28" fill="#5d8c91" opacity=".24"/>
    <circle cx="76" cy="78" r="17" fill="#2e5d69"/>
    <path d="M60 76h32M76 62v32" stroke="#bfe2dc" stroke-width="6" stroke-linecap="round"/>
    <path d="M24 132c38 18 84 18 126-4" fill="none" stroke="#2e5d69" stroke-width="7" stroke-linecap="round" opacity=".42"/>
  </g>

  <g transform="translate(680 340)" filter="url(#shadow)">
    <rect width="138" height="82" rx="24" fill="#315464"/>
    <path d="M22 42c26-34 68-34 94 0" fill="none" stroke="#e8fbf3" stroke-width="12" stroke-linecap="round"/>
    <circle cx="50" cy="44" r="18" fill="#79c7c5"/>
    <circle cx="88" cy="44" r="18" fill="#79c7c5"/>
    <path d="M62 62h14" stroke="#e8fbf3" stroke-width="8" stroke-linecap="round"/>
  </g>

  <g transform="translate(488 74) rotate(3)" filter="url(#shadow)">
    <rect width="166" height="226" rx="28" fill="url(#paper)"/>
    <rect x="26" y="26" width="112" height="42" rx="16" fill="#365b6c"/>
    <path d="M48 48h66" stroke="#ffd36c" stroke-width="8" stroke-linecap="round"/>
    <text x="32" y="106" fill="#425a5b" font-family="Inter, Arial, sans-serif" font-size="19" font-weight="800">ROOM FIT</text>
    <path d="M34 134h74M34 162h100M34 190h62" stroke="#66756d" stroke-width="8" stroke-linecap="round"/>
    <circle cx="126" cy="134" r="11" fill="#f46f61"/>
  </g>

  <g transform="translate(280 346)" filter="url(#shadow)">
    <path d="M0 30c34-28 78-28 112 0v54H0z" fill="#ffb453"/>
    <path d="M18 34c24-12 50-12 76 0" fill="none" stroke="#7a4e31" stroke-width="8" stroke-linecap="round"/>
    <path d="M132 38c30-26 72-24 104 4l-10 48H120z" fill="#4e8fb0"/>
    <path d="M144 42c22-10 46-8 72 4" fill="none" stroke="#1f5363" stroke-width="8" stroke-linecap="round"/>
    <circle cx="26" cy="98" r="7" fill="#d8b36b"/>
    <circle cx="54" cy="106" r="6" fill="#d8b36b"/>
    <circle cx="150" cy="104" r="6" fill="#d8b36b"/>
    <circle cx="196" cy="98" r="7" fill="#d8b36b"/>
  </g>

  <g transform="translate(96 366)" filter="url(#shadow)">
    <rect width="118" height="70" rx="22" fill="#eef8f0"/>
    <rect x="24" y="18" width="70" height="16" rx="8" fill="#e7ffff"/>
    <rect x="24" y="42" width="70" height="16" rx="8" fill="#d8f1ef"/>
    <path d="M106 14h28M106 34h20M106 54h30" stroke="#3e6b75" stroke-width="8" stroke-linecap="round"/>
  </g>

  <g transform="translate(774 162)" filter="url(#shadow)">
    <rect width="74" height="122" rx="22" fill="#fdf9ef"/>
    <circle cx="37" cy="38" r="18" fill="#79c7c5"/>
    <path d="M24 78h26M24 98h26" stroke="#315464" stroke-width="8" stroke-linecap="round"/>
    <path d="M60 36c22 30 22 58 0 86" fill="none" stroke="#f46f61" stroke-width="8" stroke-linecap="round"/>
  </g>
</svg>
