<svg xmlns="http://www.w3.org/2000/svg" viewBox="0 0 320 200" role="img" aria-label="Airport pickup sign connecting a guest, driver, hotel, and booking">
  <defs>
    <linearGradient id="terminal" x1="38" x2="288" y1="18" y2="178" gradientUnits="userSpaceOnUse">
      <stop stop-color="#102a3d"/>
      <stop offset=".58" stop-color="#17364a"/>
      <stop offset="1" stop-color="#08151f"/>
    </linearGradient>
    <linearGradient id="sign" x1="120" x2="224" y1="58" y2="118" gradientUnits="userSpaceOnUse">
      <stop stop-color="#fff6d8"/>
      <stop offset="1" stop-color="#a7f3d0"/>
    </linearGradient>
    <linearGradient id="route" x1="70" x2="270" y1="156" y2="120" gradientUnits="userSpaceOnUse">
      <stop stop-color="#fbbf24"/>
      <stop offset="1" stop-color="#22d3ee"/>
    </linearGradient>
  </defs>
  <rect width="320" height="200" rx="18" fill="url(#terminal)"/>
  <path d="M24 158h272" stroke="#ffffff" stroke-opacity=".1" stroke-width="10" stroke-linecap="round"/>
  <rect x="34" y="26" width="92" height="44" rx="8" fill="#06111b" stroke="#5eead4" stroke-opacity=".35"/>
  <path d="M48 42h18M76 42h34M48 56h28M88 56h22" stroke="#f8fafc" stroke-opacity=".72" stroke-width="5" stroke-linecap="round"/>
  <circle cx="44" cy="42" r="3" fill="#fbbf24"/>
  <circle cx="44" cy="56" r="3" fill="#22d3ee"/>
  <path d="M74 154c34-28 76-32 124-18 28 8 48 2 72-17" fill="none" stroke="url(#route)" stroke-width="8" stroke-linecap="round" stroke-dasharray="3 13"/>
  <circle cx="76" cy="154" r="8" fill="#fbbf24"/>
  <path d="M252 108l18-15 18 15v38h-36z" fill="#dbeafe" opacity=".88"/>
  <path d="M247 108h46" stroke="#93c5fd" stroke-width="7" stroke-linecap="round"/>
  <rect x="260" y="124" width="18" height="22" rx="3" fill="#0f172a" opacity=".8"/>
  <circle cx="172" cy="48" r="15" fill="#f8caa2"/>
  <path d="M146 98c2-24 10-36 26-36s25 12 27 36" fill="#38bdf8"/>
  <path d="M136 73h72" stroke="#f8caa2" stroke-width="8" stroke-linecap="round"/>
  <rect x="112" y="76" width="116" height="48" rx="8" fill="url(#sign)" stroke="#ffffff" stroke-opacity=".78"/>
  <path d="M130 94h80M144 108h52" stroke="#0f172a" stroke-opacity=".72" stroke-width="6" stroke-linecap="round"/>
  <text x="170" y="96" fill="#0f172a" font-family="Arial, sans-serif" font-size="13" font-weight="700" text-anchor="middle">HOTELBYTE</text>
  <rect x="54" y="120" width="28" height="38" rx="6" fill="#c4b5fd"/>
  <path d="M61 120v-10h14v10" fill="none" stroke="#e9d5ff" stroke-width="4" stroke-linecap="round"/>
  <circle cx="62" cy="164" r="4" fill="#111827"/>
  <circle cx="78" cy="164" r="4" fill="#111827"/>
  <path d="M44 177h238" stroke="#ffffff" stroke-opacity=".13" stroke-width="5" stroke-linecap="round"/>
</svg>
