<svg xmlns="http://www.w3.org/2000/svg" viewBox="0 0 320 200" role="img" aria-label="Low-battery hotel confirmation with taxi route and booking card">
  <defs>
    <linearGradient id="paper" x1="42" x2="278" y1="20" y2="184" gradientUnits="userSpaceOnUse">
      <stop stop-color="#fff7ed"/>
      <stop offset="1" stop-color="#dbeafe"/>
    </linearGradient>
    <linearGradient id="phone" x1="78" x2="186" y1="24" y2="176" gradientUnits="userSpaceOnUse">
      <stop stop-color="#172554"/>
      <stop offset="1" stop-color="#0f172a"/>
    </linearGradient>
    <linearGradient id="route" x1="154" x2="276" y1="52" y2="148" gradientUnits="userSpaceOnUse">
      <stop stop-color="#f97316"/>
      <stop offset="1" stop-color="#0ea5e9"/>
    </linearGradient>
  </defs>
  <rect width="320" height="200" rx="18" fill="#0f172a"/>
  <rect x="24" y="20" width="272" height="160" rx="16" fill="url(#paper)"/>
  <path d="M44 150c26-18 45-20 66-7 18 11 37 12 54 0 20-15 42-14 67 2 16 10 29 10 45 1" fill="none" stroke="url(#route)" stroke-width="7" stroke-linecap="round" stroke-dasharray="1 13"/>
  <circle cx="58" cy="142" r="10" fill="#f97316"/>
  <path d="M58 132v20M48 142h20" stroke="#fff7ed" stroke-width="4" stroke-linecap="round"/>
  <path d="M244 74c0 18-20 38-20 38s-20-20-20-38a20 20 0 1 1 40 0z" fill="#14b8a6"/>
  <circle cx="224" cy="74" r="8" fill="#ecfeff"/>
  <rect x="67" y="28" width="110" height="148" rx="16" fill="url(#phone)"/>
  <rect x="78" y="44" width="88" height="116" rx="9" fill="#f8fafc"/>
  <rect x="100" y="35" width="44" height="5" rx="3" fill="#475569"/>
  <rect x="134" y="51" width="24" height="10" rx="3" fill="#fee2e2" stroke="#ef4444" stroke-width="2"/>
  <rect x="136" y="53" width="6" height="6" rx="1.5" fill="#ef4444"/>
  <text x="122" y="60" fill="#475569" font-family="Arial, sans-serif" font-size="8" font-weight="700" text-anchor="middle">7%</text>
  <text x="122" y="80" fill="#0f172a" font-family="Arial, sans-serif" font-size="11" font-weight="700" text-anchor="middle">HOTEL CONFIRM</text>
  <path d="M91 96h62M91 112h48M91 128h56M91 144h36" stroke="#334155" stroke-opacity=".72" stroke-width="6" stroke-linecap="round"/>
  <circle cx="91" cy="96" r="3.5" fill="#14b8a6"/>
  <circle cx="91" cy="112" r="3.5" fill="#f97316"/>
  <circle cx="91" cy="128" r="3.5" fill="#6366f1"/>
  <rect x="191" y="113" width="77" height="44" rx="8" fill="#ffffff" stroke="#1e293b" stroke-opacity=".18"/>
  <path d="M204 129h42M204 143h30" stroke="#0f172a" stroke-opacity=".66" stroke-width="6" stroke-linecap="round"/>
  <circle cx="254" cy="136" r="8" fill="#facc15"/>
  <path d="M252 132v6l5 3" stroke="#713f12" stroke-width="2.5" stroke-linecap="round"/>
  <path d="M198 51h60" stroke="#0f172a" stroke-opacity=".22" stroke-width="7" stroke-linecap="round"/>
  <path d="M198 63h44" stroke="#0f172a" stroke-opacity=".16" stroke-width="7" stroke-linecap="round"/>
  <path d="M36 39h42M36 52h28" stroke="#0f172a" stroke-opacity=".16" stroke-width="6" stroke-linecap="round"/>
</svg>
