<svg xmlns="http://www.w3.org/2000/svg" viewBox="0 0 960 540" role="img" aria-labelledby="title desc">
  <title id="title">Hotel front desk water during extreme heat</title>
  <desc id="desc">A sunlit hotel front desk during extreme heat shows cold water bottles, a shaded drop-off note, thermometer, child cap, suitcase, restock crate, bench, recycling basket, and taxi outside.</desc>
  <defs>
    <linearGradient id="heatLobby" x1="0" y1="0" x2="1" y2="1">
      <stop offset="0" stop-color="#fff2c8"/>
      <stop offset="0.46" stop-color="#f4d08b"/>
      <stop offset="1" stop-color="#cde1d8"/>
    </linearGradient>
    <linearGradient id="desk" x1="0" y1="0" x2="1" y2="1">
      <stop offset="0" stop-color="#f8ead1"/>
      <stop offset="1" stop-color="#9c7653"/>
    </linearGradient>
    <linearGradient id="glassDoor" x1="0" y1="0" x2="1" y2="1">
      <stop offset="0" stop-color="#d8f3f0" stop-opacity=".8"/>
      <stop offset="1" stop-color="#6aa5a8" stop-opacity=".54"/>
    </linearGradient>
    <linearGradient id="water" x1="0" y1="0" x2="1" y2="1">
      <stop offset="0" stop-color="#e9fbff"/>
      <stop offset="0.58" stop-color="#6fc6d3"/>
      <stop offset="1" stop-color="#297f96"/>
    </linearGradient>
    <filter id="shadow" x="-20%" y="-20%" width="140%" height="140%">
      <feDropShadow dx="0" dy="16" stdDeviation="14" flood-color="#5f553f" flood-opacity=".22"/>
    </filter>
  </defs>

  <rect width="960" height="540" rx="28" fill="url(#heatLobby)"/>
  <circle cx="790" cy="82" r="64" fill="#f27c4b" opacity=".88"/>
  <path d="M690 84h202M736 34l110 96M736 130l110-96" stroke="#ffe6a8" stroke-width="10" stroke-linecap="round" opacity=".55"/>
  <path d="M78 92h804M104 132h722M96 454h760" stroke="#ffffff" stroke-width="8" stroke-linecap="round" opacity=".48"/>
  <rect x="82" y="344" width="796" height="118" rx="30" fill="#b68458" opacity=".36"/>
  <path d="M116 390h706M154 432h626" stroke="#fff0bf" stroke-width="7" stroke-linecap="round" opacity=".42"/>

  <g transform="translate(578 104)" filter="url(#shadow)">
    <rect x="0" y="0" width="230" height="238" rx="28" fill="url(#glassDoor)"/>
    <path d="M30 34h170M30 76h170M30 118h170M30 160h170" stroke="#e9fbff" stroke-width="8" stroke-linecap="round" opacity=".55"/>
    <path d="M116 22v194" stroke="#4b777a" stroke-width="9" stroke-linecap="round" opacity=".72"/>
    <rect x="46" y="160" width="118" height="32" rx="16" fill="#ffe6a8"/>
    <path d="M66 176h48M130 176h20" stroke="#7b603a" stroke-width="7" stroke-linecap="round"/>
    <text x="34" y="278" fill="#4d625f" font-family="Inter, Arial, sans-serif" font-size="18" font-weight="700">shaded drop-off</text>
  </g>

  <g transform="translate(118 174)" filter="url(#shadow)">
    <path d="M0 52 410 0l218 70-410 66z" fill="#f5e2bf"/>
    <path d="M0 52v150l218 86V136z" fill="#c99b69"/>
    <path d="M218 136 628 70v144l-410 74z" fill="url(#desk)"/>
    <path d="M50 96h112M50 132h86M288 144h164M288 180h116" stroke="#fff3cf" stroke-width="10" stroke-linecap="round" opacity=".68"/>
    <text x="300" y="246" fill="#735438" font-family="Inter, Arial, sans-serif" font-size="18" font-weight="700">pause first</text>
  </g>

  <g transform="translate(286 126)" filter="url(#shadow)">
    <g>
      <rect x="0" y="38" width="52" height="142" rx="18" fill="url(#water)"/>
      <rect x="10" y="18" width="32" height="34" rx="12" fill="#dff7fb"/>
      <rect x="8" y="84" width="36" height="42" rx="10" fill="#f7fff6" opacity=".9"/>
      <path d="M18 104h16M18 118h10" stroke="#26788e" stroke-width="5" stroke-linecap="round"/>
    </g>
    <g transform="translate(70 12)">
      <rect x="0" y="38" width="52" height="142" rx="18" fill="url(#water)"/>
      <rect x="10" y="18" width="32" height="34" rx="12" fill="#dff7fb"/>
      <rect x="8" y="84" width="36" height="42" rx="10" fill="#f7fff6" opacity=".9"/>
      <path d="M18 104h16M18 118h10" stroke="#26788e" stroke-width="5" stroke-linecap="round"/>
    </g>
    <path d="M4 58c38-24 82-28 132-12" fill="none" stroke="#ffffff" stroke-width="8" stroke-linecap="round" opacity=".65"/>
    <text x="-10" y="224" fill="#4f6661" font-family="Inter, Arial, sans-serif" font-size="18" font-weight="700">cold water first</text>
  </g>

  <g transform="translate(96 110)" filter="url(#shadow)">
    <rect width="122" height="176" rx="26" fill="#fff8dc"/>
    <circle cx="62" cy="70" r="42" fill="#ffe2a0"/>
    <path d="M62 70V34M62 70l26 18" stroke="#674d32" stroke-width="8" stroke-linecap="round"/>
    <path d="M28 126h68M28 148h50" stroke="#7a603e" stroke-width="8" stroke-linecap="round"/>
    <circle cx="94" cy="126" r="10" fill="#e86243"/>
    <text x="4" y="216" fill="#6e5b3e" font-family="Inter, Arial, sans-serif" font-size="18" font-weight="700">39 C outside</text>
  </g>

  <g transform="translate(686 352)" filter="url(#shadow)">
    <rect x="0" y="34" width="154" height="70" rx="22" fill="#f0c65c"/>
    <path d="M24 34c12-30 80-30 92 0" fill="none" stroke="#2f4550" stroke-width="12" stroke-linecap="round"/>
    <circle cx="38" cy="116" r="15" fill="#24333a"/>
    <circle cx="122" cy="116" r="15" fill="#24333a"/>
    <path d="M28 66h72M28 86h94" stroke="#805a2a" stroke-width="8" stroke-linecap="round"/>
    <text x="-4" y="154" fill="#435655" font-family="Inter, Arial, sans-serif" font-size="18" font-weight="700">taxi waits in shade</text>
  </g>

  <g transform="translate(106 344)" filter="url(#shadow)">
    <rect width="152" height="82" rx="22" fill="#d9eee7"/>
    <path d="M24 32h74M24 56h104" stroke="#516a64" stroke-width="8" stroke-linecap="round"/>
    <rect x="102" y="18" width="34" height="46" rx="12" fill="#f0c65c"/>
    <text x="14" y="120" fill="#526862" font-family="Inter, Arial, sans-serif" font-size="18" font-weight="700">bench nearby</text>
  </g>

  <g transform="translate(294 360)" filter="url(#shadow)">
    <rect x="0" y="24" width="126" height="102" rx="22" fill="#314c58"/>
    <path d="M28 24V4h70v20" fill="none" stroke="#f0c65c" stroke-width="10" stroke-linecap="round"/>
    <circle cx="32" cy="138" r="14" fill="#1c2a31"/>
    <circle cx="98" cy="138" r="14" fill="#1c2a31"/>
    <path d="M28 58h58M28 82h74" stroke="#e7f2ef" stroke-width="8" stroke-linecap="round"/>
    <path d="M92 18c22-18 52 12 28 32-16 14-48 2-36-20" fill="none" stroke="#e86243" stroke-width="8" stroke-linecap="round"/>
    <text x="-4" y="176" fill="#425552" font-family="Inter, Arial, sans-serif" font-size="18" font-weight="700">hot suitcase</text>
  </g>

  <g transform="translate(454 354)" filter="url(#shadow)">
    <rect width="132" height="96" rx="22" fill="#eaf6f1"/>
    <path d="M28 0v96M72 0v96M18 26h96M18 58h96" stroke="#85aaa1" stroke-width="8" stroke-linecap="round"/>
    <rect x="28" y="18" width="30" height="58" rx="12" fill="url(#water)"/>
    <rect x="74" y="18" width="30" height="58" rx="12" fill="url(#water)"/>
    <text x="-4" y="132" fill="#526862" font-family="Inter, Arial, sans-serif" font-size="18" font-weight="700">restock crate</text>
  </g>

  <g transform="translate(598 214)" filter="url(#shadow)">
    <rect width="118" height="72" rx="20" fill="#f8ead1"/>
    <path d="M22 28h48M22 50h72" stroke="#725b3b" stroke-width="7" stroke-linecap="round"/>
    <path d="M82 22l20 20-30 6" fill="none" stroke="#e86243" stroke-width="7" stroke-linecap="round" stroke-linejoin="round"/>
    <text x="-2" y="108" fill="#536865" font-family="Inter, Arial, sans-serif" font-size="18" font-weight="700">family sits here</text>
  </g>

  <g transform="translate(202 302)" filter="url(#shadow)">
    <path d="M0 44c18-40 92-50 132-12l-16 34H12z" fill="#e86243"/>
    <path d="M48 30c28-16 56-14 82 6" fill="none" stroke="#ffd9a8" stroke-width="8" stroke-linecap="round"/>
    <path d="M118 66c28 2 50 10 68 24" fill="none" stroke="#e86243" stroke-width="12" stroke-linecap="round"/>
    <text x="8" y="110" fill="#714a35" font-family="Inter, Arial, sans-serif" font-size="18" font-weight="700">child cap</text>
  </g>

  <g transform="translate(784 228)" filter="url(#shadow)">
    <rect width="74" height="98" rx="20" fill="#f7fff6"/>
    <path d="M22 28h30M18 48h38M22 68h30" stroke="#4f6a64" stroke-width="7" stroke-linecap="round"/>
    <path d="M20 88h36" stroke="#6fc6d3" stroke-width="8" stroke-linecap="round"/>
    <text x="-10" y="134" fill="#546661" font-family="Inter, Arial, sans-serif" font-size="18" font-weight="700">recycling</text>
  </g>

  <path d="M416 236c54-22 112-24 174-6M588 254c38 26 76 40 116 42M420 402c26-18 58-28 96-30M256 362c42-20 78-48 108-84" fill="none" stroke="#ffffff" stroke-width="9" stroke-linecap="round" stroke-dasharray="13 17" opacity=".78"/>
  <path d="M704 296l32 16-30 20" fill="none" stroke="#ffffff" stroke-width="9" stroke-linecap="round" stroke-linejoin="round" opacity=".78"/>

  <text x="78" y="66" fill="#625238" font-family="Inter, Arial, sans-serif" font-size="28" font-weight="700">water before paperwork</text>
  <text x="78" y="100" fill="#7a6a4d" font-family="Inter, Arial, sans-serif" font-size="16">heat, shade, bench, luggage, family, first minute</text>
</svg>
