<svg xmlns="http://www.w3.org/2000/svg" viewBox="0 0 320 200" role="img" aria-label="Hotel breakfast hours as a morning promise">
  <defs>
    <linearGradient id="room21" x1="20" x2="300" y1="18" y2="186" gradientUnits="userSpaceOnUse">
      <stop stop-color="#0f1f2a"/>
      <stop offset=".55" stop-color="#214047"/>
      <stop offset="1" stop-color="#13231e"/>
    </linearGradient>
    <linearGradient id="morning21" x1="44" x2="278" y1="24" y2="134" gradientUnits="userSpaceOnUse">
      <stop stop-color="#fff7d6"/>
      <stop offset="1" stop-color="#dff7ee"/>
    </linearGradient>
    <filter id="shadow21" x="-20%" y="-20%" width="140%" height="140%">
      <feDropShadow dx="0" dy="8" stdDeviation="7" flood-color="#020617" flood-opacity=".3"/>
    </filter>
  </defs>
  <rect width="320" height="200" rx="18" fill="url(#room21)"/>
  <circle cx="256" cy="42" r="20" fill="#facc15" opacity=".9"/>
  <path d="M232 42h48M256 18v48M239 25l34 34M273 25l-34 34" stroke="#fef3c7" stroke-width="4" stroke-linecap="round" opacity=".55"/>
  <path d="M27 139h266" stroke="#f8fafc" stroke-opacity=".1" stroke-width="5" stroke-linecap="round"/>
  <path d="M40 62c38-16 74-15 108 2 39 20 80 19 123-3" fill="none" stroke="#ffffff" stroke-opacity=".12" stroke-width="6" stroke-linecap="round"/>

  <g filter="url(#shadow21)">
    <rect x="52" y="33" width="116" height="77" rx="12" fill="url(#morning21)" stroke="#fef3c7" stroke-width="3"/>
    <path d="M70 54h80" stroke="#0f172a" stroke-width="7" stroke-linecap="round"/>
    <path d="M83 81h54" stroke="#ef4444" stroke-width="12" stroke-linecap="round"/>
    <circle cx="86" cy="81" r="4" fill="#fef3c7"/>
    <circle cx="133" cy="81" r="4" fill="#fef3c7"/>
    <path d="M66 99h86" stroke="#64748b" stroke-width="4" stroke-linecap="round" opacity=".7"/>
  </g>

  <g transform="translate(190 70)" filter="url(#shadow21)">
    <path d="M17 24h49c4 0 7 3 7 7v47H9V32c0-5 3-8 8-8z" fill="#f8fafc"/>
    <path d="M22 24c2-16 36-16 38 0" fill="none" stroke="#f8fafc" stroke-width="8" stroke-linecap="round"/>
    <path d="M19 43h44M19 58h31" stroke="#334155" stroke-width="5" stroke-linecap="round"/>
    <circle cx="58" cy="58" r="8" fill="#f97316"/>
    <path d="M53 58h10M58 53v10" stroke="#fff7ed" stroke-width="2" stroke-linecap="round"/>
  </g>

  <g transform="translate(37 119)">
    <ellipse cx="45" cy="34" rx="42" ry="12" fill="#020617" opacity=".22"/>
    <path d="M18 22c11-15 45-18 58 0-5 20-51 20-58 0z" fill="#fbbf24"/>
    <path d="M25 21c10-7 35-8 44 0" fill="none" stroke="#fff7ed" stroke-width="5" stroke-linecap="round"/>
    <path d="M10 38h76" stroke="#f8fafc" stroke-width="7" stroke-linecap="round"/>
  </g>

  <g transform="translate(126 116)">
    <ellipse cx="39" cy="39" rx="35" ry="11" fill="#020617" opacity=".2"/>
    <rect x="13" y="18" width="45" height="42" rx="8" fill="#0ea5e9"/>
    <path d="M58 29c16-3 18 22 1 20" fill="none" stroke="#bae6fd" stroke-width="7" stroke-linecap="round"/>
    <path d="M22 9c10 7-3 12 6 18M38 9c10 7-3 12 6 18" fill="none" stroke="#fef3c7" stroke-width="4" stroke-linecap="round"/>
  </g>

  <g transform="translate(215 31) rotate(8)">
    <rect x="0" y="0" width="71" height="29" rx="7" fill="#e0f2fe" stroke="#7dd3fc" stroke-width="2"/>
    <path d="M10 12h34M10 21h49" stroke="#075985" stroke-width="4" stroke-linecap="round"/>
    <circle cx="56" cy="12" r="5" fill="#ef4444"/>
  </g>

  <g transform="translate(32 34) rotate(-7)">
    <rect x="0" y="0" width="42" height="23" rx="6" fill="#fef3c7" stroke="#f59e0b" stroke-width="2"/>
    <path d="M8 9h25M8 16h19" stroke="#92400e" stroke-width="4" stroke-linecap="round"/>
  </g>

  <path d="M252 144c11 10 27 11 39 1" fill="none" stroke="#f8fafc" stroke-opacity=".55" stroke-width="5" stroke-linecap="round"/>
  <path d="M272 132l17 11-17 11" fill="none" stroke="#f8fafc" stroke-opacity=".55" stroke-width="5" stroke-linecap="round" stroke-linejoin="round"/>
</svg>
