<svg xmlns="http://www.w3.org/2000/svg" viewBox="0 0 320 200" role="img" aria-label="Takeaway breakfast box before an early flight">
  <defs>
    <linearGradient id="dawn22" x1="22" x2="298" y1="20" y2="182" gradientUnits="userSpaceOnUse">
      <stop stop-color="#172033"/>
      <stop offset=".48" stop-color="#28465b"/>
      <stop offset="1" stop-color="#f6b36d"/>
    </linearGradient>
    <linearGradient id="desk22" x1="30" x2="290" y1="130" y2="188" gradientUnits="userSpaceOnUse">
      <stop stop-color="#6b3f2a"/>
      <stop offset="1" stop-color="#2f1d1a"/>
    </linearGradient>
    <linearGradient id="bag22" x1="0" x2="80" y1="0" y2="104" gradientUnits="userSpaceOnUse">
      <stop stop-color="#fff1c7"/>
      <stop offset="1" stop-color="#d99a43"/>
    </linearGradient>
    <filter id="shadow22" x="-20%" y="-20%" width="140%" height="145%">
      <feDropShadow dx="0" dy="8" stdDeviation="7" flood-color="#0f172a" flood-opacity=".35"/>
    </filter>
  </defs>

  <rect width="320" height="200" rx="18" fill="url(#dawn22)"/>
  <circle cx="262" cy="48" r="21" fill="#fde68a" opacity=".9"/>
  <path d="M26 119c48-23 95-23 141 0 36 18 78 18 126-2" fill="none" stroke="#f8fafc" stroke-opacity=".13" stroke-width="6" stroke-linecap="round"/>
  <rect x="0" y="136" width="320" height="64" fill="url(#desk22)"/>
  <path d="M20 139h280" stroke="#fef3c7" stroke-opacity=".22" stroke-width="5" stroke-linecap="round"/>

  <g transform="translate(113 47)" filter="url(#shadow22)">
    <path d="M16 26h72l-6 96H22z" fill="url(#bag22)"/>
    <path d="M28 26c3-25 46-25 49 0" fill="none" stroke="#fef3c7" stroke-width="9" stroke-linecap="round"/>
    <path d="M21 48h62" stroke="#b45309" stroke-opacity=".45" stroke-width="3" stroke-linecap="round"/>
    <rect x="30" y="61" width="44" height="31" rx="7" fill="#fff7ed" stroke="#f59e0b" stroke-width="2"/>
    <path d="M39 73h25M39 84h17" stroke="#92400e" stroke-width="4" stroke-linecap="round"/>
    <circle cx="67" cy="84" r="5" fill="#ef4444"/>
  </g>

  <g transform="translate(42 111) rotate(-7)" filter="url(#shadow22)">
    <rect x="0" y="0" width="76" height="38" rx="8" fill="#e0f2fe" stroke="#7dd3fc" stroke-width="2"/>
    <path d="M11 13h35M11 24h54" stroke="#075985" stroke-width="4" stroke-linecap="round"/>
    <path d="M54 9l11 6-11 6z" fill="#ef4444"/>
  </g>

  <g transform="translate(204 103)" filter="url(#shadow22)">
    <ellipse cx="33" cy="49" rx="29" ry="9" fill="#020617" opacity=".23"/>
    <path d="M13 12h36l-5 48H18z" fill="#f8fafc"/>
    <path d="M17 12h29l-4-11H21z" fill="#cbd5e1"/>
    <path d="M20 28h23" stroke="#0f766e" stroke-width="5" stroke-linecap="round"/>
    <path d="M24 41h15" stroke="#94a3b8" stroke-width="4" stroke-linecap="round"/>
  </g>

  <g transform="translate(231 70)">
    <path d="M19 30h45c7 0 13 6 13 13v12H7V42c0-7 5-12 12-12z" fill="#0f172a" opacity=".88"/>
    <path d="M25 30l8-14h20l9 14" fill="none" stroke="#bae6fd" stroke-width="5" stroke-linecap="round" stroke-linejoin="round"/>
    <circle cx="22" cy="55" r="6" fill="#facc15"/>
    <circle cx="62" cy="55" r="6" fill="#facc15"/>
    <path d="M18 44h48" stroke="#e0f2fe" stroke-width="4" stroke-linecap="round"/>
  </g>

  <g transform="translate(37 54)">
    <rect x="0" y="0" width="74" height="36" rx="8" fill="#111827" stroke="#64748b" stroke-width="2"/>
    <path d="M12 13h33M12 24h48" stroke="#f8fafc" stroke-width="4" stroke-linecap="round"/>
    <circle cx="58" cy="14" r="5" fill="#fb923c"/>
  </g>

  <path d="M84 169c16 7 47 8 65 0M171 170c20 8 62 7 84-2" fill="none" stroke="#fef3c7" stroke-opacity=".22" stroke-width="5" stroke-linecap="round"/>
</svg>
