<svg xmlns="http://www.w3.org/2000/svg" viewBox="0 0 960 540" role="img" aria-labelledby="title desc">
  <title id="title">Late-night hotel side-door check-in</title>
  <desc id="desc">A guest with luggage stands at a lit hotel side-door bell after a delayed night flight, with front-desk guidance visible inside.</desc>
  <defs>
    <linearGradient id="night" x1="0" y1="0" x2="0" y2="1">
      <stop offset="0" stop-color="#182433"/>
      <stop offset="1" stop-color="#283442"/>
    </linearGradient>
    <linearGradient id="glass" x1="0" y1="0" x2="1" y2="1">
      <stop offset="0" stop-color="#c9edf2" stop-opacity=".64"/>
      <stop offset="1" stop-color="#f6d27b" stop-opacity=".72"/>
    </linearGradient>
    <filter id="soft" x="-20%" y="-20%" width="140%" height="140%">
      <feDropShadow dx="0" dy="14" stdDeviation="12" flood-color="#0d1620" flood-opacity=".28"/>
    </filter>
  </defs>
  <rect width="960" height="540" rx="28" fill="url(#night)"/>
  <circle cx="134" cy="106" r="38" fill="#f5d07a" opacity=".9"/>
  <path d="M80 330h820v110H80z" fill="#43505d"/>
  <path d="M104 438h760" stroke="#f4c66e" stroke-width="5" stroke-linecap="round" opacity=".7"/>
  <g filter="url(#soft)">
    <path d="M318 92h408c26 0 48 22 48 48v282H270V140c0-26 22-48 48-48z" fill="#eef0e7"/>
    <path d="M314 104h416c18 0 32 14 32 32v284H282V136c0-18 14-32 32-32z" fill="#39424c"/>
    <rect x="322" y="132" width="182" height="288" rx="12" fill="url(#glass)"/>
    <rect x="528" y="132" width="194" height="288" rx="12" fill="url(#glass)"/>
    <path d="M520 132v288" stroke="#eef0e7" stroke-width="8"/>
    <rect x="558" y="178" width="124" height="90" rx="10" fill="#fff7df"/>
    <path d="M580 205h80M580 228h68M580 251h56" stroke="#5b6875" stroke-width="8" stroke-linecap="round"/>
    <rect x="346" y="178" width="118" height="76" rx="10" fill="#1f2e3e" opacity=".82"/>
    <path d="M370 204h70M370 228h48" stroke="#f4c66e" stroke-width="8" stroke-linecap="round"/>
    <circle cx="704" cy="278" r="14" fill="#f4c66e"/>
  </g>
  <g transform="translate(220 250)">
    <rect x="0" y="82" width="84" height="92" rx="14" fill="#725f50"/>
    <path d="M17 82V58c0-20 16-36 36-36s36 16 36 36v24" fill="none" stroke="#d9c8a6" stroke-width="10" stroke-linecap="round"/>
    <circle cx="25" cy="192" r="10" fill="#1d2630"/>
    <circle cx="65" cy="192" r="10" fill="#1d2630"/>
    <path d="M105 170h42" stroke="#d9c8a6" stroke-width="9" stroke-linecap="round"/>
    <circle cx="162" cy="170" r="16" fill="#d9c8a6"/>
  </g>
  <g transform="translate(172 190)">
    <circle cx="54" cy="42" r="30" fill="#c98b68"/>
    <path d="M24 92c8-28 52-38 74-14 18 20 18 74 12 108H14c-4-42-2-72 10-94z" fill="#4d8a9c"/>
    <path d="M55 72v72" stroke="#fff2d3" stroke-width="10" stroke-linecap="round"/>
    <path d="M100 118l38-18" stroke="#c98b68" stroke-width="11" stroke-linecap="round"/>
  </g>
  <g transform="translate(764 250)">
    <rect x="0" y="0" width="54" height="96" rx="14" fill="#e6edf0"/>
    <circle cx="27" cy="31" r="15" fill="#f4c66e"/>
    <path d="M17 64h20" stroke="#5b6875" stroke-width="7" stroke-linecap="round"/>
    <path d="M78 8c24 22 24 60 0 82M101 -11c40 42 40 101 0 142" fill="none" stroke="#f4c66e" stroke-width="8" stroke-linecap="round"/>
  </g>
  <g transform="translate(628 70)">
    <rect width="188" height="70" rx="18" fill="#fff7df"/>
    <path d="M25 26h58M25 46h92" stroke="#5b6875" stroke-width="8" stroke-linecap="round"/>
    <path d="M132 22l28 24-34 2" fill="none" stroke="#d45f45" stroke-width="7" stroke-linecap="round" stroke-linejoin="round"/>
  </g>
  <text x="84" y="76" fill="#f7ead1" font-family="Inter, Arial, sans-serif" font-size="28" font-weight="700">23:47</text>
  <text x="84" y="110" fill="#b8c6cf" font-family="Inter, Arial, sans-serif" font-size="16">delayed flight, side entrance, still expected</text>
</svg>
