<svg xmlns="http://www.w3.org/2000/svg" viewBox="0 0 960 540" role="img" aria-labelledby="title desc">
  <title id="title">Hotel refund reconciliation desk</title>
  <desc id="desc">An overhead hotel finance desk shows a refund reconciliation sheet, receipts, supplier invoice, room folio, calculator, support note, currency chips, and coffee connected by colored evidence lines.</desc>
  <defs>
    <linearGradient id="desktop" x1="0" y1="0" x2="1" y2="1">
      <stop offset="0" stop-color="#31453f"/>
      <stop offset="0.52" stop-color="#4f665d"/>
      <stop offset="1" stop-color="#d7aa6c"/>
    </linearGradient>
    <linearGradient id="paper" x1="0" y1="0" x2="1" y2="1">
      <stop offset="0" stop-color="#fff9eb"/>
      <stop offset="1" stop-color="#e7f0e7"/>
    </linearGradient>
    <linearGradient id="receipt" x1="0" y1="0" x2="0" y2="1">
      <stop offset="0" stop-color="#f7fbff"/>
      <stop offset="1" stop-color="#d9e8ed"/>
    </linearGradient>
    <filter id="softShadow" x="-20%" y="-20%" width="140%" height="140%">
      <feDropShadow dx="0" dy="16" stdDeviation="14" flood-color="#1d2b29" flood-opacity=".24"/>
    </filter>
  </defs>

  <rect width="960" height="540" rx="28" fill="url(#desktop)"/>
  <path d="M88 126c136-34 246-30 330 12M572 108c88-28 178-20 270 24M92 452c158 28 304 20 438-24" fill="none" stroke="#fff4d8" stroke-width="8" stroke-linecap="round" opacity=".18"/>
  <path d="M118 82h724M102 470h756" stroke="#1f302d" stroke-width="8" stroke-linecap="round" opacity=".22"/>

  <g transform="translate(292 72)" filter="url(#softShadow)">
    <rect width="376" height="396" rx="28" fill="url(#paper)"/>
    <rect x="34" y="34" width="176" height="28" rx="14" fill="#d15f4f"/>
    <path d="M34 92h298M34 136h298M34 180h298M34 224h298M34 268h298" stroke="#9aa9a0" stroke-width="5" stroke-linecap="round" opacity=".5"/>
    <path d="M158 82v218M256 82v218" stroke="#9aa9a0" stroke-width="5" stroke-linecap="round" opacity=".42"/>
    <path d="M56 110h68M56 154h74M56 198h58M56 242h92" stroke="#51635c" stroke-width="9" stroke-linecap="round"/>
    <path d="M182 110h42M182 154h64M182 198h50M182 242h54" stroke="#51635c" stroke-width="9" stroke-linecap="round" opacity=".82"/>
    <path d="M276 110h38M276 154h30M276 198h42M276 242h24" stroke="#51635c" stroke-width="9" stroke-linecap="round" opacity=".7"/>
    <rect x="214" y="304" width="120" height="52" rx="16" fill="#fff0d2" stroke="#e7b868" stroke-width="4"/>
    <path d="M238 322h38M238 342h70" stroke="#7b5a36" stroke-width="8" stroke-linecap="round"/>
    <circle cx="312" cy="324" r="11" fill="#d15f4f"/>
    <text x="34" y="386" fill="#465950" font-family="Inter, Arial, sans-serif" font-size="22" font-weight="700">refund sheet</text>
  </g>

  <g transform="translate(96 98) rotate(-6)" filter="url(#softShadow)">
    <rect width="154" height="236" rx="20" fill="url(#receipt)"/>
    <path d="M24 38h82M24 68h104M24 98h72M24 150h96M24 182h62" stroke="#4f6470" stroke-width="8" stroke-linecap="round"/>
    <path d="M112 118l22 22-30 5" fill="none" stroke="#d15f4f" stroke-width="8" stroke-linecap="round" stroke-linejoin="round"/>
    <text x="18" y="272" fill="#e8f1ed" font-family="Inter, Arial, sans-serif" font-size="18" font-weight="700">POS receipt</text>
  </g>

  <g transform="translate(684 82) rotate(5)" filter="url(#softShadow)">
    <rect width="178" height="148" rx="22" fill="#efe3ff"/>
    <path d="M28 42h86M28 76h122M28 110h76" stroke="#675582" stroke-width="9" stroke-linecap="round"/>
    <circle cx="132" cy="42" r="12" fill="#6ab59f"/>
    <path d="M134 88l24 22-34 6" fill="none" stroke="#d15f4f" stroke-width="8" stroke-linecap="round" stroke-linejoin="round"/>
    <text x="10" y="190" fill="#efe3ff" font-family="Inter, Arial, sans-serif" font-size="18" font-weight="700">supplier invoice</text>
  </g>

  <g transform="translate(686 286) rotate(-4)" filter="url(#softShadow)">
    <rect width="164" height="116" rx="22" fill="#f8efd9"/>
    <path d="M26 36h72M26 66h104M26 92h58" stroke="#755f42" stroke-width="8" stroke-linecap="round"/>
    <circle cx="126" cy="36" r="11" fill="#e4b95c"/>
    <text x="12" y="154" fill="#f8efd9" font-family="Inter, Arial, sans-serif" font-size="18" font-weight="700">room folio</text>
  </g>

  <g transform="translate(98 364)" filter="url(#softShadow)">
    <rect width="180" height="94" rx="22" fill="#e3f5ee"/>
    <path d="M28 34h76M28 62h116" stroke="#4f665d" stroke-width="8" stroke-linecap="round"/>
    <circle cx="136" cy="34" r="11" fill="#d15f4f"/>
    <text x="12" y="130" fill="#e3f5ee" font-family="Inter, Arial, sans-serif" font-size="18" font-weight="700">support note</text>
  </g>

  <g transform="translate(720 398)" filter="url(#softShadow)">
    <rect width="132" height="72" rx="20" fill="#25312f"/>
    <rect x="18" y="14" width="32" height="18" rx="7" fill="#dbe7e2"/>
    <rect x="62" y="14" width="32" height="18" rx="7" fill="#dbe7e2"/>
    <rect x="18" y="42" width="32" height="18" rx="7" fill="#dbe7e2"/>
    <rect x="62" y="42" width="52" height="18" rx="7" fill="#e4b95c"/>
  </g>

  <g transform="translate(188 272)" filter="url(#softShadow)">
    <circle cx="40" cy="40" r="34" fill="#e5bd62"/>
    <circle cx="40" cy="40" r="18" fill="#fff2c6"/>
    <circle cx="96" cy="54" r="30" fill="#7fc1b0"/>
    <circle cx="96" cy="54" r="14" fill="#e8fff8"/>
    <circle cx="136" cy="24" r="24" fill="#d15f4f"/>
    <circle cx="136" cy="24" r="10" fill="#ffe5d9"/>
  </g>

  <g transform="translate(580 322)" filter="url(#softShadow)">
    <circle cx="48" cy="48" r="44" fill="#2f2725"/>
    <circle cx="48" cy="48" r="30" fill="#7b4a34"/>
    <path d="M80 42c36 0 36 38 0 38" fill="none" stroke="#f0dec7" stroke-width="10" stroke-linecap="round"/>
  </g>

  <path d="M244 214C320 204 354 192 408 184" fill="none" stroke="#f0c866" stroke-width="7" stroke-linecap="round" stroke-dasharray="12 15"/>
  <path d="M660 168c-54 24-98 42-142 58" fill="none" stroke="#7fc1b0" stroke-width="7" stroke-linecap="round" stroke-dasharray="12 15"/>
  <path d="M664 332c-52-2-96-8-132-18" fill="none" stroke="#d15f4f" stroke-width="7" stroke-linecap="round" stroke-dasharray="12 15"/>
  <path d="M278 406c62-34 116-52 162-54" fill="none" stroke="#e9e7da" stroke-width="7" stroke-linecap="round" stroke-dasharray="12 15"/>

  <g transform="translate(416 24)">
    <rect width="130" height="46" rx="18" fill="#e8f1ed" opacity=".94"/>
    <path d="M24 18h48M24 30h82" stroke="#465950" stroke-width="7" stroke-linecap="round"/>
  </g>

  <text x="82" y="64" fill="#f4ead7" font-family="Inter, Arial, sans-serif" font-size="28" font-weight="700">16:00</text>
  <text x="82" y="98" fill="#e5d8bd" font-family="Inter, Arial, sans-serif" font-size="16">refund, rule, evidence, next owner</text>
</svg>
