<svg xmlns="http://www.w3.org/2000/svg" viewBox="0 0 320 200" role="img" aria-label="A quiet check-in ritual with a room key, cup, and suitcase">
  <defs>
    <linearGradient id="g" x1="40" x2="280" y1="22" y2="178" gradientUnits="userSpaceOnUse">
      <stop stop-color="#10243a"/>
      <stop offset="1" stop-color="#07121b"/>
    </linearGradient>
  </defs>
  <rect width="320" height="200" rx="18" fill="url(#g)"/>
  <circle cx="248" cy="46" r="20" fill="#ffcc66" opacity=".35"/>
  <path d="M38 126h244" stroke="#fff" stroke-opacity=".12" stroke-width="10" stroke-linecap="round"/>
  <path d="M54 126c22-24 44-35 70-35 38 0 58 34 93 15 20-11 32-28 54-31" fill="none" stroke="#00f0ff" stroke-opacity=".22" stroke-width="8" stroke-linecap="round"/>
  <rect x="64" y="76" width="54" height="38" rx="9" fill="#ffcc66" opacity=".88"/>
  <path d="M80 90h22M80 103h15" stroke="#07121b" stroke-opacity=".62" stroke-width="5" stroke-linecap="round"/>
  <rect x="130" y="104" width="44" height="34" rx="8" fill="#b026ff" opacity=".66"/>
  <path d="M141 104v-9c0-7 22-7 22 0v9" fill="none" stroke="#fff" stroke-opacity=".36" stroke-width="5"/>
  <path d="M198 76h50v34a18 18 0 0 1-18 18h-14a18 18 0 0 1-18-18z" fill="#00f0ff" opacity=".24"/>
  <path d="M248 88h16a12 12 0 0 1 0 24h-16" fill="none" stroke="#00f0ff" stroke-opacity=".58" stroke-width="7"/>
  <path d="M60 154h206" stroke="#fff" stroke-opacity=".1" stroke-width="7" stroke-linecap="round"/>
</svg>
